<?xml version="1.0" encoding="utf-8"?>
<!-- Generator: Adobe Illustrator 21.1.0, SVG Export Plug-In . SVG Version: 6.00 Build 0)  -->
<svg version="1.1" id="Layer_1" xmlns="http://www.w3.org/2000/svg" xmlns:xlink="http://www.w3.org/1999/xlink" x="0px" y="0px"
	 viewBox="0 0 202 185.5" style="enable-background:new 0 0 202 185.5;" xml:space="preserve">
<style type="text/css">
	.st0{opacity:0.9;}
	.st1{fill-rule:evenodd;clip-rule:evenodd;fill:#FFFFFF;}
	.st2{fill-rule:evenodd;clip-rule:evenodd;fill:#FEFEFE;}
	.st3{fill-rule:evenodd;clip-rule:evenodd;fill:#FDFDFD;}
	.st4{fill-rule:evenodd;clip-rule:evenodd;fill:#FCFCFC;}
	.st5{fill-rule:evenodd;clip-rule:evenodd;fill:#FBFBFB;}
	.st6{fill-rule:evenodd;clip-rule:evenodd;fill:#FAFAFA;}
	.st7{fill-rule:evenodd;clip-rule:evenodd;fill:#F9F9F9;}
	.st8{fill-rule:evenodd;clip-rule:evenodd;fill:#F8F8F8;}
	.st9{fill-rule:evenodd;clip-rule:evenodd;fill:#F7F7F7;}
	.st10{fill-rule:evenodd;clip-rule:evenodd;fill:#F6F6F6;}
	.st11{fill-rule:evenodd;clip-rule:evenodd;fill:#F5F5F5;}
	.st12{fill-rule:evenodd;clip-rule:evenodd;fill:#F4F4F4;}
	.st13{fill-rule:evenodd;clip-rule:evenodd;fill:#F3F3F3;}
	.st14{fill-rule:evenodd;clip-rule:evenodd;fill:#F2F2F2;}
	.st15{fill-rule:evenodd;clip-rule:evenodd;fill:#F1F1F1;}
	.st16{fill-rule:evenodd;clip-rule:evenodd;fill:#F0F0F0;}
	.st17{fill-rule:evenodd;clip-rule:evenodd;fill:#EFEFEF;}
	.st18{fill-rule:evenodd;clip-rule:evenodd;fill:#EEEEEE;}
	.st19{fill-rule:evenodd;clip-rule:evenodd;fill:#EDEDED;}
	.st20{fill-rule:evenodd;clip-rule:evenodd;fill:#ECECEC;}
	.st21{fill-rule:evenodd;clip-rule:evenodd;fill:#EBEBEB;}
	.st22{fill-rule:evenodd;clip-rule:evenodd;fill:#EAEAEA;}
	.st23{fill-rule:evenodd;clip-rule:evenodd;fill:#E9E9E9;}
	.st24{fill-rule:evenodd;clip-rule:evenodd;fill:#E8E8E8;}
	.st25{fill-rule:evenodd;clip-rule:evenodd;fill:#E7E7E7;}
	.st26{fill-rule:evenodd;clip-rule:evenodd;fill:#E6E6E6;}
	.st27{fill-rule:evenodd;clip-rule:evenodd;fill:#E5E5E5;}
	.st28{fill-rule:evenodd;clip-rule:evenodd;fill:#E4E4E4;}
	.st29{fill-rule:evenodd;clip-rule:evenodd;fill:#E3E3E3;}
	.st30{fill-rule:evenodd;clip-rule:evenodd;fill:#E2E2E2;}
	.st31{fill-rule:evenodd;clip-rule:evenodd;fill:#E1E1E1;}
	.st32{fill-rule:evenodd;clip-rule:evenodd;fill:#E0E0E0;}
	.st33{fill-rule:evenodd;clip-rule:evenodd;fill:#DFDFDF;}
	.st34{fill-rule:evenodd;clip-rule:evenodd;fill:#DEDEDE;}
	.st35{fill-rule:evenodd;clip-rule:evenodd;fill:#DDDDDD;}
	.st36{fill-rule:evenodd;clip-rule:evenodd;fill:#DCDCDC;}
	.st37{fill-rule:evenodd;clip-rule:evenodd;fill:#DBDBDB;}
	.st38{fill-rule:evenodd;clip-rule:evenodd;fill:#DADADA;}
	.st39{fill-rule:evenodd;clip-rule:evenodd;fill:#D9D9D9;}
	.st40{fill-rule:evenodd;clip-rule:evenodd;fill:#D8D8D8;}
	.st41{fill-rule:evenodd;clip-rule:evenodd;fill:#D7D7D7;}
	.st42{fill-rule:evenodd;clip-rule:evenodd;fill:#D6D6D6;}
	.st43{fill-rule:evenodd;clip-rule:evenodd;fill:#D5D5D5;}
	.st44{fill-rule:evenodd;clip-rule:evenodd;fill:#D4D4D4;}
	.st45{fill-rule:evenodd;clip-rule:evenodd;fill:#D3D3D3;}
	.st46{fill-rule:evenodd;clip-rule:evenodd;fill:#D2D2D2;}
	.st47{fill-rule:evenodd;clip-rule:evenodd;fill:#D1D1D1;}
	.st48{fill-rule:evenodd;clip-rule:evenodd;fill:#D0D0D0;}
	.st49{fill-rule:evenodd;clip-rule:evenodd;fill:#CFCFCF;}
	.st50{fill-rule:evenodd;clip-rule:evenodd;fill:#CECECE;}
	.st51{fill-rule:evenodd;clip-rule:evenodd;fill:#CDCDCD;}
	.st52{fill-rule:evenodd;clip-rule:evenodd;fill:#CCCCCC;}
	.st53{fill-rule:evenodd;clip-rule:evenodd;fill:#CBCBCB;}
	.st54{fill-rule:evenodd;clip-rule:evenodd;fill:#CACACA;}
	.st55{fill-rule:evenodd;clip-rule:evenodd;fill:#C9C9C9;}
	.st56{fill-rule:evenodd;clip-rule:evenodd;fill:#C8C8C8;}
	.st57{fill-rule:evenodd;clip-rule:evenodd;fill:#C7C7C7;}
	.st58{fill-rule:evenodd;clip-rule:evenodd;fill:#C6C6C6;}
	.st59{fill-rule:evenodd;clip-rule:evenodd;fill:#C5C5C5;}
	.st60{fill-rule:evenodd;clip-rule:evenodd;fill:#C4C4C4;}
	.st61{fill-rule:evenodd;clip-rule:evenodd;fill:#C3C3C3;}
	.st62{fill-rule:evenodd;clip-rule:evenodd;fill:#C2C2C2;}
	.st63{fill-rule:evenodd;clip-rule:evenodd;fill:#C1C1C1;}
	.st64{fill-rule:evenodd;clip-rule:evenodd;fill:#C0C0C0;}
	.st65{fill-rule:evenodd;clip-rule:evenodd;fill:#BFBFBF;}
	.st66{fill-rule:evenodd;clip-rule:evenodd;fill:#BEBEBE;}
	.st67{fill-rule:evenodd;clip-rule:evenodd;fill:#BDBDBD;}
	.st68{fill-rule:evenodd;clip-rule:evenodd;fill:#BCBCBC;}
	.st69{fill-rule:evenodd;clip-rule:evenodd;fill:#BBBBBB;}
	.st70{fill-rule:evenodd;clip-rule:evenodd;fill:#BABABA;}
	.st71{fill-rule:evenodd;clip-rule:evenodd;fill:#B9B9B9;}
	.st72{fill-rule:evenodd;clip-rule:evenodd;fill:#B8B8B8;}
	.st73{fill-rule:evenodd;clip-rule:evenodd;fill:#B7B7B7;}
	.st74{fill-rule:evenodd;clip-rule:evenodd;fill:#B6B6B6;}
	.st75{fill-rule:evenodd;clip-rule:evenodd;fill:#B5B5B5;}
	.st76{fill-rule:evenodd;clip-rule:evenodd;fill:#B4B4B4;}
	.st77{fill-rule:evenodd;clip-rule:evenodd;fill:#B3B3B3;}
	.st78{fill-rule:evenodd;clip-rule:evenodd;fill:#ED1C24;stroke:#F21325;stroke-miterlimit:10;}
	.st79{fill:#FFFFFF;}
	.st80{fill:#ED1C24;stroke:#ED1C24;stroke-miterlimit:10;}
</style>
<g class="st0">
	<path class="st1" d="M94.6,131.6c-24,0-37.1-3.3-37.1-5.5c0-2.3,19.4-4.1,43.4-4.1c24,0,43.4,1.8,43.4,4.1
		C144.3,128.3,118.5,131.6,94.6,131.6L94.6,131.6z"/>
	<path class="st2" d="M94.7,131.5c-23.7,0-36.8-3.2-36.8-5.4c0-2.2,19.2-4,43-4c23.7,0,43,1.8,43,4
		C143.9,128.3,118.4,131.5,94.7,131.5L94.7,131.5z"/>
	<path class="st3" d="M94.8,131.5c-23.5,0-36.4-3.2-36.4-5.4c0-2.2,19.1-4,42.6-4c23.5,0,42.6,1.8,42.6,4
		C143.4,128.3,118.3,131.5,94.8,131.5L94.8,131.5z"/>
	<path class="st4" d="M94.8,131.4c-23.3,0-36.1-3.1-36.1-5.3c0-2.2,18.9-4,42.1-4c23.3,0,42.1,1.8,42.1,4
		C143,128.2,118.1,131.4,94.8,131.4L94.8,131.4z"/>
	<path class="st5" d="M94.9,131.3c-23,0-35.8-3.1-35.8-5.3c0-2.2,18.7-3.9,41.7-3.9c23,0,41.7,1.8,41.7,3.9
		C142.6,128.2,118,131.3,94.9,131.3L94.9,131.3z"/>
	<path class="st6" d="M95,131.3c-22.8,0-35.4-3.1-35.4-5.2c0-2.1,18.5-3.9,41.3-3.9c22.8,0,41.3,1.7,41.3,3.9
		C142.2,128.2,117.8,131.3,95,131.3L95,131.3z"/>
	<path class="st7" d="M95.1,131.2c-22.6,0-35.1-3-35.1-5.1c0-2.1,18.3-3.8,40.9-3.8c22.6,0,40.9,1.7,40.9,3.8
		C141.8,128.2,117.7,131.2,95.1,131.2L95.1,131.2z"/>
	<path class="st8" d="M95.2,131.1c-22.4,0-34.8-3-34.8-5.1c0-2.1,18.1-3.8,40.5-3.8c22.4,0,40.5,1.7,40.5,3.8
		C141.4,128.1,117.6,131.1,95.2,131.1L95.2,131.1z"/>
	<path class="st9" d="M95.3,131.1c-22.1,0-34.4-3-34.4-5c0-2.1,18-3.7,40.1-3.7c22.1,0,40.1,1.7,40.1,3.7
		C141,128.1,117.4,131.1,95.3,131.1L95.3,131.1z"/>
	<path class="st10" d="M95.4,131c-21.9,0-34.1-2.9-34.1-5c0-2,17.8-3.7,39.7-3.7c21.9,0,39.7,1.7,39.7,3.7
		C140.6,128.1,117.3,131,95.4,131L95.4,131z"/>
	<path class="st11" d="M95.5,130.9c-21.7,0-33.8-2.9-33.8-4.9c0-2,17.6-3.7,39.3-3.7c21.7,0,39.3,1.6,39.3,3.7
		C140.2,128,117.1,130.9,95.5,130.9L95.5,130.9z"/>
	<path class="st12" d="M95.5,130.9c-21.4,0-33.5-2.8-33.5-4.8c0-2,17.4-3.6,38.8-3.6c21.4,0,38.8,1.6,38.8,3.6
		C139.8,128,117,130.9,95.5,130.9L95.5,130.9z"/>
	<path class="st13" d="M95.6,130.8c-21.2,0-33.1-2.8-33.1-4.8c0-2,17.2-3.6,38.4-3.6s38.4,1.6,38.4,3.6
		C139.4,128,116.9,130.8,95.6,130.8L95.6,130.8z"/>
	<path class="st14" d="M95.7,130.7c-21,0-32.8-2.8-32.8-4.7c0-1.9,17-3.5,38-3.5c21,0,38,1.6,38,3.5C139,128,116.7,130.7,95.7,130.7
		L95.7,130.7z"/>
	<path class="st15" d="M95.8,130.6c-20.8,0-32.5-2.7-32.5-4.6c0-1.9,16.8-3.5,37.6-3.5c20.8,0,37.6,1.6,37.6,3.5
		C138.6,127.9,116.6,130.6,95.8,130.6L95.8,130.6z"/>
	<path class="st16" d="M95.9,130.6c-20.5,0-32.1-2.7-32.1-4.6c0-1.9,16.7-3.4,37.2-3.4c20.5,0,37.2,1.5,37.2,3.4
		C138.1,127.9,116.4,130.6,95.9,130.6L95.9,130.6z"/>
	<path class="st17" d="M96,130.5c-20.3,0-31.8-2.6-31.8-4.5c0-1.9,16.5-3.4,36.8-3.4c20.3,0,36.8,1.5,36.8,3.4
		C137.7,127.9,116.3,130.5,96,130.5L96,130.5z"/>
	<path class="st18" d="M96.1,130.4c-20.1,0-31.5-2.6-31.5-4.5c0-1.9,16.3-3.4,36.4-3.4c20.1,0,36.4,1.5,36.4,3.4
		C137.3,127.8,116.1,130.4,96.1,130.4L96.1,130.4z"/>
	<path class="st19" d="M96.2,130.4c-19.9,0-31.1-2.6-31.1-4.4c0-1.8,16.1-3.3,36-3.3c19.9,0,36,1.5,36,3.3
		C136.9,127.8,116,130.4,96.2,130.4L96.2,130.4z"/>
	<path class="st20" d="M96.2,130.3c-19.6,0-30.8-2.5-30.8-4.3c0-1.8,15.9-3.3,35.5-3.3c19.6,0,35.5,1.5,35.5,3.3
		C136.5,127.8,115.9,130.3,96.2,130.3L96.2,130.3z"/>
	<path class="st21" d="M96.3,130.2c-19.4,0-30.5-2.5-30.5-4.3c0-1.8,15.7-3.2,35.1-3.2c19.4,0,35.1,1.4,35.1,3.2
		C136.1,127.7,115.7,130.2,96.3,130.2L96.3,130.2z"/>
	<path class="st22" d="M96.4,130.2c-19.2,0-30.1-2.5-30.1-4.2c0-1.8,15.5-3.2,34.7-3.2c19.2,0,34.7,1.4,34.7,3.2
		C135.7,127.7,115.6,130.2,96.4,130.2L96.4,130.2z"/>
	<path class="st23" d="M96.5,130.1c-18.9,0-29.8-2.4-29.8-4.2c0-1.7,15.4-3.1,34.3-3.1c18.9,0,34.3,1.4,34.3,3.1
		C135.3,127.7,115.4,130.1,96.5,130.1L96.5,130.1z"/>
	<path class="st24" d="M96.6,130c-18.7,0-29.5-2.4-29.5-4.1c0-1.7,15.2-3.1,33.9-3.1c18.7,0,33.9,1.4,33.9,3.1
		C134.9,127.7,115.3,130,96.6,130L96.6,130z"/>
	<path class="st25" d="M96.7,130c-18.5,0-29.1-2.3-29.1-4c0-1.7,15-3.1,33.5-3.1c18.5,0,33.5,1.4,33.5,3.1
		C134.5,127.6,115.2,130,96.7,130L96.7,130z"/>
	<path class="st26" d="M96.8,129.9c-18.3,0-28.8-2.3-28.8-4c0-1.7,14.8-3,33.1-3c18.3,0,33.1,1.3,33.1,3
		C134.1,127.6,115,129.9,96.8,129.9L96.8,129.9z"/>
	<path class="st27" d="M96.9,129.8c-18,0-28.5-2.3-28.5-3.9c0-1.6,14.6-3,32.6-3c18,0,32.6,1.3,32.6,3
		C133.7,127.6,114.9,129.8,96.9,129.8L96.9,129.8z"/>
	<path class="st28" d="M96.9,129.8c-17.8,0-28.2-2.2-28.2-3.9c0-1.6,14.4-2.9,32.2-2.9c17.8,0,32.2,1.3,32.2,2.9
		C133.3,127.5,114.7,129.8,96.9,129.8L96.9,129.8z"/>
	<path class="st29" d="M97,129.7c-17.6,0-27.8-2.2-27.8-3.8c0-1.6,14.3-2.9,31.8-2.9c17.6,0,31.8,1.3,31.8,2.9
		C132.8,127.5,114.6,129.7,97,129.7L97,129.7z"/>
	<path class="st30" d="M97.1,129.6c-17.3,0-27.5-2.2-27.5-3.7c0-1.6,14.1-2.8,31.4-2.8c17.3,0,31.4,1.3,31.4,2.8
		C132.4,127.5,114.5,129.6,97.1,129.6L97.1,129.6z"/>
	<path class="st31" d="M97.2,129.6c-17.1,0-27.2-2.1-27.2-3.7c0-1.5,13.9-2.8,31-2.8c17.1,0,31,1.3,31,2.8
		C132,127.5,114.3,129.6,97.2,129.6L97.2,129.6z"/>
	<path class="st32" d="M97.3,129.5c-16.9,0-26.8-2.1-26.8-3.6c0-1.5,13.7-2.8,30.6-2.8c16.9,0,30.6,1.2,30.6,2.8
		C131.6,127.4,114.2,129.5,97.3,129.5L97.3,129.5z"/>
	<path class="st33" d="M97.4,129.4c-16.7,0-26.5-2-26.5-3.5c0-1.5,13.5-2.7,30.2-2.7c16.7,0,30.2,1.2,30.2,2.7
		C131.2,127.4,114,129.4,97.4,129.4L97.4,129.4z"/>
	<path class="st34" d="M97.5,129.4c-16.4,0-26.2-2-26.2-3.5c0-1.5,13.3-2.7,29.8-2.7c16.4,0,29.8,1.2,29.8,2.7
		C130.8,127.4,113.9,129.4,97.5,129.4L97.5,129.4z"/>
	<path class="st35" d="M97.5,129.3c-16.2,0-25.8-2-25.8-3.4c0-1.5,13.1-2.6,29.3-2.6c16.2,0,29.3,1.2,29.3,2.6
		C130.4,127.3,113.8,129.3,97.5,129.3L97.5,129.3z"/>
	<path class="st36" d="M97.6,129.2c-16,0-25.5-1.9-25.5-3.4c0-1.4,13-2.6,28.9-2.6c16,0,28.9,1.2,28.9,2.6
		C130,127.3,113.6,129.2,97.6,129.2L97.6,129.2z"/>
	<path class="st37" d="M97.7,129.2c-15.7,0-25.2-1.9-25.2-3.3c0-1.4,12.8-2.5,28.5-2.5c15.7,0,28.5,1.1,28.5,2.5
		C129.6,127.3,113.5,129.2,97.7,129.2L97.7,129.2z"/>
	<path class="st38" d="M97.8,129.1c-15.5,0-24.8-1.9-24.8-3.2c0-1.4,12.6-2.5,28.1-2.5c15.5,0,28.1,1.1,28.1,2.5
		C129.2,127.2,113.3,129.1,97.8,129.1L97.8,129.1z"/>
	<path class="st39" d="M97.9,129c-15.3,0-24.5-1.8-24.5-3.2c0-1.4,12.4-2.5,27.7-2.5c15.3,0,27.7,1.1,27.7,2.5
		C128.8,127.2,113.2,129,97.9,129L97.9,129z"/>
	<path class="st39" d="M98,129c-15.1,0-24.2-1.8-24.2-3.1c0-1.3,12.2-2.4,27.3-2.4c15.1,0,27.3,1.1,27.3,2.4
		C128.4,127.2,113,129,98,129L98,129z"/>
	<path class="st40" d="M98.1,128.9c-14.8,0-23.8-1.7-23.8-3.1c0-1.3,12-2.4,26.9-2.4c14.8,0,26.9,1.1,26.9,2.4
		C128,127.2,112.9,128.9,98.1,128.9L98.1,128.9z"/>
	<path class="st41" d="M98.2,128.8c-14.6,0-23.5-1.7-23.5-3c0-1.3,11.8-2.3,26.5-2.3c14.6,0,26.4,1,26.4,2.3
		C127.5,127.1,112.8,128.8,98.2,128.8L98.2,128.8z"/>
	<path class="st42" d="M98.2,128.8c-14.4,0-23.2-1.7-23.2-2.9c0-1.3,11.7-2.3,26-2.3c14.4,0,26,1,26,2.3
		C127.1,127.1,112.6,128.8,98.2,128.8L98.2,128.8z"/>
	<path class="st43" d="M98.3,128.7c-14.1,0-22.8-1.6-22.8-2.9c0-1.2,11.5-2.2,25.6-2.2c14.1,0,25.6,1,25.6,2.2
		C126.7,127.1,112.5,128.7,98.3,128.7L98.3,128.7z"/>
	<path class="st44" d="M98.4,128.6c-13.9,0-22.5-1.6-22.5-2.8c0-1.2,11.3-2.2,25.2-2.2c13.9,0,25.2,1,25.2,2.2
		C126.3,127,112.3,128.6,98.4,128.6L98.4,128.6z"/>
	<path class="st45" d="M98.5,128.6c-13.7,0-22.2-1.6-22.2-2.8c0-1.2,11.1-2.2,24.8-2.2c13.7,0,24.8,1,24.8,2.2
		C125.9,127,112.2,128.6,98.5,128.6L98.5,128.6z"/>
	<path class="st46" d="M98.6,128.5c-13.5,0-21.9-1.5-21.9-2.7c0-1.2,10.9-2.1,24.4-2.1c13.5,0,24.4,0.9,24.4,2.1
		C125.5,127,112.1,128.5,98.6,128.5L98.6,128.5z"/>
	<path class="st47" d="M98.7,128.4c-13.2,0-21.5-1.5-21.5-2.6c0-1.1,10.7-2.1,24-2.1c13.2,0,24,0.9,24,2.1
		C125.1,127,111.9,128.4,98.7,128.4L98.7,128.4z"/>
	<path class="st48" d="M98.8,128.4c-13,0-21.2-1.4-21.2-2.6c0-1.1,10.6-2,23.6-2c13,0,23.6,0.9,23.6,2
		C124.7,126.9,111.8,128.4,98.8,128.4L98.8,128.4z"/>
	<path class="st49" d="M98.9,128.3c-12.8,0-20.9-1.4-20.9-2.5c0-1.1,10.4-2,23.1-2c12.8,0,23.1,0.9,23.1,2
		C124.3,126.9,111.6,128.3,98.9,128.3L98.9,128.3z"/>
	<path class="st50" d="M98.9,128.2c-12.6,0-20.5-1.4-20.5-2.4c0-1.1,10.2-1.9,22.7-1.9c12.6,0,22.7,0.9,22.7,1.9
		C123.9,126.9,111.5,128.2,98.9,128.2L98.9,128.2z"/>
	<path class="st51" d="M99,128.2c-12.3,0-20.2-1.3-20.2-2.4c0-1.1,10-1.9,22.3-1.9c12.3,0,22.3,0.9,22.3,1.9
		C123.5,126.8,111.4,128.2,99,128.2L99,128.2z"/>
	<path class="st52" d="M99.1,128.1c-12.1,0-19.9-1.3-19.9-2.3c0-1,9.8-1.9,21.9-1.9c12.1,0,21.9,0.8,21.9,1.9
		C123.1,126.8,111.2,128.1,99.1,128.1L99.1,128.1z"/>
	<path class="st53" d="M99.2,128c-11.9,0-19.5-1.3-19.5-2.3c0-1,9.6-1.8,21.5-1.8c11.9,0,21.5,0.8,21.5,1.8
		C122.7,126.8,111.1,128,99.2,128L99.2,128z"/>
	<path class="st54" d="M99.3,128c-11.6,0-19.2-1.2-19.2-2.2c0-1,9.4-1.8,21.1-1.8c11.6,0,21.1,0.8,21.1,1.8
		C122.2,126.7,110.9,128,99.3,128L99.3,128z"/>
	<path class="st55" d="M99.4,127.9c-11.4,0-18.9-1.2-18.9-2.1c0-1,9.3-1.7,20.7-1.7c11.4,0,20.7,0.8,20.7,1.7
		C121.8,126.7,110.8,127.9,99.4,127.9L99.4,127.9z"/>
	<path class="st56" d="M99.5,127.8c-11.2,0-18.5-1.1-18.5-2.1c0-0.9,9.1-1.7,20.3-1.7c11.2,0,20.3,0.8,20.3,1.7
		C121.4,126.7,110.6,127.8,99.5,127.8L99.5,127.8z"/>
	<path class="st57" d="M99.6,127.8c-11,0-18.2-1.1-18.2-2c0-0.9,8.9-1.7,19.8-1.7c11,0,19.8,0.7,19.8,1.7
		C121,126.7,110.5,127.8,99.6,127.8L99.6,127.8z"/>
	<path class="st58" d="M99.6,127.7c-10.7,0-17.9-1.1-17.9-2c0-0.9,8.7-1.6,19.4-1.6c10.7,0,19.4,0.7,19.4,1.6
		C120.6,126.6,110.4,127.7,99.6,127.7L99.6,127.7z"/>
	<path class="st59" d="M99.7,127.6c-10.5,0-17.5-1-17.5-1.9c0-0.9,8.5-1.6,19-1.6c10.5,0,19,0.7,19,1.6
		C120.2,126.6,110.2,127.6,99.7,127.6L99.7,127.6z"/>
	<path class="st60" d="M99.8,127.6c-10.3,0-17.2-1-17.2-1.8c0-0.8,8.3-1.5,18.6-1.5c10.3,0,18.6,0.7,18.6,1.5
		C119.8,126.6,110.1,127.6,99.8,127.6L99.8,127.6z"/>
	<path class="st61" d="M99.9,127.5c-10,0-16.9-1-16.9-1.8c0-0.8,8.1-1.5,18.2-1.5c10,0,18.2,0.7,18.2,1.5
		C119.4,126.5,109.9,127.5,99.9,127.5L99.9,127.5z"/>
	<path class="st62" d="M100,127.4c-9.8,0-16.6-0.9-16.6-1.7c0-0.8,8-1.4,17.8-1.4c9.8,0,17.8,0.6,17.8,1.4
		C119,126.5,109.8,127.4,100,127.4L100,127.4z"/>
	<path class="st63" d="M100.1,127.4c-9.6,0-16.2-0.9-16.2-1.7c0-0.8,7.8-1.4,17.4-1.4c9.6,0,17.4,0.6,17.4,1.4
		C118.6,126.5,109.7,127.4,100.1,127.4L100.1,127.4z"/>
	<path class="st64" d="M100.2,127.3c-9.4,0-15.9-0.8-15.9-1.6c0-0.7,7.6-1.4,17-1.4c9.4,0,16.9,0.6,16.9,1.4
		C118.2,126.4,109.5,127.3,100.2,127.3L100.2,127.3z"/>
	<path class="st65" d="M100.3,127.2c-9.1,0-15.6-0.8-15.6-1.5c0-0.7,7.4-1.3,16.5-1.3c9.1,0,16.5,0.6,16.5,1.3
		C117.8,126.4,109.4,127.2,100.3,127.2L100.3,127.2z"/>
	<path class="st66" d="M100.3,127.2c-8.9,0-15.2-0.8-15.2-1.5c0-0.7,7.2-1.3,16.1-1.3c8.9,0,16.1,0.6,16.1,1.3
		C117.4,126.4,109.2,127.2,100.3,127.2L100.3,127.2z"/>
	<path class="st67" d="M100.4,127.1c-8.7,0-14.9-0.7-14.9-1.4c0-0.7,7-1.2,15.7-1.2c8.7,0,15.7,0.5,15.7,1.2
		C117,126.4,109.1,127.1,100.4,127.1L100.4,127.1z"/>
	<path class="st68" d="M100.5,127c-8.4,0-14.6-0.7-14.6-1.3c0-0.7,6.9-1.2,15.3-1.2c8.4,0,15.3,0.5,15.3,1.2
		C116.5,126.3,109,127,100.5,127L100.5,127z"/>
	<path class="st69" d="M100.6,127c-8.2,0-14.2-0.7-14.2-1.3c0-0.6,6.7-1.1,14.9-1.1c8.2,0,14.9,0.5,14.9,1.1
		C116.1,126.3,108.8,127,100.6,127L100.6,127z"/>
	<path class="st70" d="M100.7,126.9c-8,0-13.9-0.6-13.9-1.2c0-0.6,6.5-1.1,14.5-1.1c8,0,14.5,0.5,14.5,1.1
		C115.7,126.3,108.7,126.9,100.7,126.9L100.7,126.9z"/>
	<path class="st71" d="M100.8,126.8c-7.8,0-13.6-0.6-13.6-1.2c0-0.6,6.3-1.1,14.1-1.1c7.8,0,14.1,0.5,14.1,1.1
		C115.3,126.2,108.5,126.8,100.8,126.8L100.8,126.8z"/>
	<path class="st72" d="M100.9,126.8c-7.5,0-13.2-0.5-13.2-1.1c0-0.6,6.1-1,13.6-1c7.5,0,13.6,0.5,13.6,1
		C114.9,126.2,108.4,126.8,100.9,126.8L100.9,126.8z"/>
	<path class="st73" d="M100.9,126.7c-7.3,0-12.9-0.5-12.9-1c0-0.5,5.9-1,13.2-1c7.3,0,13.2,0.4,13.2,1
		C114.5,126.2,108.3,126.7,100.9,126.7L100.9,126.7z"/>
	<path class="st74" d="M101,126.6c-7.1,0-12.6-0.5-12.6-1c0-0.5,5.7-0.9,12.8-0.9c7.1,0,12.8,0.4,12.8,0.9
		C114.1,126.2,108.1,126.6,101,126.6L101,126.6z"/>
	<path class="st75" d="M101.1,126.6c-6.9,0-12.2-0.4-12.2-0.9c0-0.5,5.6-0.9,12.4-0.9c6.8,0,12.4,0.4,12.4,0.9
		C113.7,126.1,108,126.6,101.1,126.6L101.1,126.6z"/>
	<path class="st76" d="M101.2,126.5c-6.6,0-11.9-0.4-11.9-0.9c0-0.5,5.4-0.8,12-0.8c6.6,0,12,0.4,12,0.8
		C113.3,126.1,107.8,126.5,101.2,126.5L101.2,126.5z"/>
	<path class="st77" d="M101.3,126.4c-6.4,0-11.6-0.4-11.6-0.8c0-0.4,5.2-0.8,11.6-0.8c6.4,0,11.6,0.4,11.6,0.8
		C112.9,126.1,107.7,126.4,101.3,126.4L101.3,126.4z"/>
</g>
<circle class="st78" cx="100.9" cy="67.6" r="56"/>
<g>
	<circle class="st79" cx="92.4" cy="94.1" r="5.6"/>
	<circle class="st79" cx="116.8" cy="94.1" r="5.6"/>
	<path class="st79" d="M131,57.9c-7.1,0-34.5,0-34.5,0s-2,0.5-2,2.7c0,2.2,2,2.9,2,2.9h30.9l-1.7,5.9c-8.5,0-30.4,0-30.4,0
		s-1.9,0.4-1.9,2.5c0,2.1,1.9,2.7,1.9,2.7h28.8h0.1l-1.6,5.5H91.1l-2.1-16.6l-0.7-5.6c0,0-0.6-5.2-0.9-7.3
		c-0.3-2.1-5.7-4.8-17.2-10.3c-2.7-1.1-5,3.8,0,6.4l9.1,4.2c0,0,2.1,1.2,2.3,2.9c0.2,1.7,3.9,29,3.9,29s0.1,3.8,3.6,3.8
		c3.5,0,31.8,0,34.7,0c2.9,0,3.5-3,3.5-3l6.9-20.4C134.1,63.2,136.1,57.9,131,57.9z"/>
</g>
<g>
	<path class="st80" d="M25.5,140.1c0.1,1.4-1.1,2.6-3,2.6c-1.7,0-2.8-1.2-2.8-2.6c0-1.5,1.2-2.6,2.9-2.6
		C24.4,137.4,25.5,138.6,25.5,140.1z M20,167.2v-18c0-1.4,1.1-2.5,2.5-2.5h0c1.4,0,2.5,1.1,2.5,2.5v18c0,1.4-1.1,2.5-2.5,2.5h0
		C21.1,169.7,20,168.6,20,167.2z"/>
	<path class="st80" d="M63.2,155.6c-0.3-4.5-0.6-9.9-0.5-13.9h-0.2c-1.2,3.8-2.7,7.8-4.5,12.3l-4.6,11.4c-1.3,3.1-5.7,3.1-6.9-0.1
		c-1.4-3.7-2.8-7.4-4.2-11.1c-1.7-4.6-3.1-8.7-4.2-12.6h-0.1c-0.1,4-0.4,9.4-0.7,14.2l-0.8,11.7c-0.1,1.2-1,2-2.2,2h0
		c-1.3,0-2.3-1.1-2.2-2.4l2.1-27.6c0.1-1.1,1-2,2.2-2h2.2c0.9,0,1.7,0.6,2,1.4l5.7,14.5l0.4,1.1c1.2,3.1,5.6,3.2,6.8,0.1l0.5-1.2
		l6-14.6c0.3-0.8,1.1-1.4,2-1.4h2.2c1.2,0,2.1,0.9,2.2,2l1.9,27.6c0.1,1.3-0.9,2.3-2.2,2.3h-0.1c-1.2,0-2.1-0.9-2.2-2.1L63.2,155.6z
		"/>
	<path class="st80" d="M91.2,169.7c-0.8,0-1.4-0.6-1.5-1.3l-0.2-1.7h-0.2c-1.6,1.9-4.5,3.5-8.5,3.5c-5.6,0-8.5-3.4-8.5-6.8
		c0-5.8,6-8.9,16.7-8.9v-0.5c0-2-0.6-5.5-6.3-5.5c-2,0-4.1,0.4-5.8,1.1c-0.8,0.3-1.7,0-2-0.8l0-0.1c-0.3-0.8,0-1.6,0.8-2
		c2.2-0.9,4.9-1.5,7.8-1.5c8.5,0,10.6,5,10.6,9.7v8.9c0,1.4,0.1,2.8,0.2,4c0.1,0.9-0.6,1.7-1.5,1.7L91.2,169.7z M88.7,159.5
		c0-0.8-0.7-1.5-1.5-1.5c-4.7,0.1-9.4,1.2-9.4,5.2c0,2.7,2.1,4.5,4.4,4c3-0.6,5.5-1.9,6.2-3.9c0.2-0.4,0.3-0.9,0.3-1.3L88.7,159.5z"
		/>
	<path class="st80" d="M101,153.9c0-2,0-3.9-0.1-5.6c0-0.9,0.6-1.6,1.5-1.6l1.4,0c0.8,0,1.5,0.7,1.5,1.5l0.1,3.5h0.2
		c1.2-3.4,3.9-5.6,7.1-5.6c0,0,0.1,0,0.1,0c0.7,0.2,1.2,0.8,1.2,1.6v1.3c0,0.8-0.7,1.5-1.5,1.5l-0.1,0c-3.3,0-5.6,2.5-6.2,5.9
		c-0.1,0.6-0.2,1.4-0.2,2.2v9.6c0,0.8-0.7,1.5-1.5,1.5h-1.9c-0.8,0-1.5-0.7-1.5-1.5V153.9z"/>
	<path class="st80" d="M124,157.7L124,157.7c0.6-0.8,1.5-1.9,2.3-2.7l7.2-7.6c0.4-0.4,1-0.7,1.6-0.7h0c2,0,3,2.5,1.4,3.8l-4.7,4.2
		c-0.9,0.8-1,2.2-0.2,3.1l7.5,8.2c1.3,1.4,0.3,3.7-1.6,3.7h-0.2c-0.6,0-1.2-0.3-1.6-0.8l-7.5-8.6c-0.8-0.9-2.2-1-3.1-0.2l-0.2,0.2
		c-0.5,0.4-0.7,1-0.7,1.6v5.5c0,1.2-1,2.2-2.2,2.2h-0.6c-1.2,0-2.2-1-2.2-2.2v-29.6c0-1.2,1-2.2,2.2-2.2h0.6c1.2,0,2.2,1,2.2,2.2
		V157.7z"/>
	<path class="st80" d="M148.7,158.7c-1,0-1.7,0.9-1.5,1.9c0.9,4.3,4.5,6.2,8.7,6.2c2.4,0,4.2-0.3,5.6-0.7c0.9-0.2,1.7,0.2,2,1.1l0,0
		c0.2,0.8-0.2,1.7-1.1,1.9c-1.7,0.5-4.1,0.9-7.2,0.9c-7.9,0-12.7-4.7-12.7-11.7s4.6-12.5,12.1-12.5c8.4,0,10.7,6.7,10.7,10.9
		c0,0.2,0,0.3,0,0.5c0,0.8-0.7,1.5-1.6,1.5H148.7z M156.9,155.7c2.3,0,3.4-1.9,3.3-3c-0.1-2.9-1.7-3.8-6.1-3.9
		c-3.7,0-5.9,0.9-6.1,3.9c-0.1,1.1,0.8,2.7,2.9,2.9L156.9,155.7z"/>
</g>
<path class="st80" d="M177,140.1v6.7h7v3h-7v12.5c0,2.9,1,4.5,3.8,4.5c1.3,0,2.3-0.1,3-0.3l0.2,3.2c-1,0.3-2.6,0.6-4.5,0.6
	c-2.4,0-4.3-0.6-5.5-1.8c-1.5-1.2-2-3.3-2-6v-12.7h-4v-3h4v-5.6L177,140.1z"/>
</svg>
